<?xml version="1.0" standalone="no"?>
<!DOCTYPE svg PUBLIC "-//W3C//DTD SVG 20010904//EN"
 "http://www.w3.org/TR/2001/REC-SVG-20010904/DTD/svg10.dtd">
<svg version="1.0" xmlns="http://www.w3.org/2000/svg"
 width="640.000000pt" height="640.000000pt" viewBox="0 0 640.000000 640.000000"
 preserveAspectRatio="xMidYMid meet">
<metadata>
Created by potrace 1.11, written by Peter Selinger 2001-2013
</metadata>
<g transform="translate(0.000000,640.000000) scale(0.100000,-0.100000)"
fill="#000000" stroke="none">
<path d="M2965 6250 c-363 -27 -748 -131 -1089 -294 -323 -155 -577 -336 -836
-596 -473 -473 -760 -1041 -866 -1717 -24 -152 -27 -195 -27 -443 0 -248 3
-291 27 -443 106 -676 393 -1244 866 -1717 473 -473 1041 -760 1717 -866 152
-24 195 -27 443 -27 248 0 291 3 443 27 676 106 1244 393 1717 866 473 473
760 1041 866 1717 24 152 27 195 27 443 0 248 -3 291 -27 443 -106 676 -393
1244 -866 1717 -472 472 -1050 764 -1712 865 -184 28 -495 39 -683 25z m427
-10 l68 0 0 -154 0 -155 36 -29 c31 -25 40 -28 70 -22 35 8 44 14 103 64 l35
29 8 -24 c5 -13 13 -64 18 -114 5 -49 12 -105 16 -122 6 -30 5 -33 -19 -33
-60 0 -74 -32 -37 -80 20 -25 20 -25 38 -5 14 17 22 19 46 11 25 -9 31 -7 51
18 20 25 25 27 45 16 20 -11 25 -9 42 11 10 13 36 61 58 107 33 68 44 82 63
82 15 0 38 16 65 46 l41 46 -20 60 c-23 68 -22 115 1 110 8 -2 54 -17 102 -34
l87 -30 -20 -41 c-20 -38 -20 -42 -5 -68 9 -15 16 -38 16 -51 0 -41 13 -48
101 -54 106 -7 167 -29 180 -62 12 -30 4 -40 -37 -48 -26 -5 -38 0 -68 26 -32
28 -46 33 -106 38 l-69 5 -7 -38 c-4 -24 -2 -45 5 -57 9 -15 7 -26 -11 -58
-13 -22 -27 -38 -33 -37 -5 2 -14 21 -20 43 -9 34 -13 39 -35 36 -38 -5 -78
-49 -96 -106 -9 -28 -18 -52 -19 -54 -1 -2 -47 6 -101 17 -55 11 -142 24 -194
31 -169 19 -160 16 -160 58 1 35 21 78 32 67 3 -3 11 2 18 11 11 12 11 20 2
34 -9 15 -8 27 4 56 19 45 12 53 -29 32 -18 -9 -41 -18 -51 -20 -40 -6 -58
-50 -58 -134 l1 -79 -172 3 c-150 3 -174 6 -189 22 -9 10 -21 20 -25 21 -4 2
-18 25 -30 52 -13 26 -30 47 -38 47 -18 0 -19 5 -3 33 6 12 15 42 18 65 l7 44
-43 -4 c-24 -2 -44 -2 -44 0 0 1 7 19 15 39 8 19 15 37 15 39 0 2 -24 3 -53 3
l-54 -1 -17 -49 c-19 -53 -18 -108 5 -191 13 -45 28 -63 30 -35 1 6 4 -1 8
-18 5 -22 14 -32 38 -38 42 -12 52 -37 15 -37 -15 0 -38 -3 -51 -7 -21 -5 -23
-3 -19 15 5 16 -1 28 -19 42 -42 33 -66 26 -104 -30 -19 -27 -42 -50 -51 -50
-9 0 -72 -11 -140 -25 -661 -131 -1198 -475 -1530 -979 -56 -85 -62 -90 -115
-108 -55 -19 -56 -19 -77 1 -21 20 -35 21 -194 21 -95 0 -172 -3 -172 -6 0
-13 26 -53 66 -100 53 -62 64 -117 25 -122 -13 -2 -31 -12 -40 -23 -16 -18
-17 -18 -86 0 -38 11 -83 24 -98 30 -37 15 -34 16 -56 -28 -17 -33 -47 -58
-57 -48 -2 1 14 51 36 109 92 250 253 541 427 772 l98 130 55 -3 c52 -2 57 0
94 38 37 38 40 39 91 34 49 -5 56 -3 79 22 14 15 26 31 26 34 0 3 -16 35 -35
71 -19 35 -35 67 -35 71 0 16 110 111 230 200 324 240 685 412 1070 509 265
67 574 104 784 94 49 -2 120 -4 158 -4z m272 -30 c75 -11 200 -36 278 -56
l143 -35 2 -48 c1 -27 10 -67 19 -90 l16 -41 -37 -45 c-28 -34 -43 -45 -65
-45 -21 0 -31 -6 -36 -22 -10 -33 -62 -140 -78 -161 -11 -14 -19 -16 -40 -7
-22 8 -28 6 -42 -15 -10 -15 -26 -25 -40 -25 -22 0 -24 4 -24 48 0 53 -26 265
-36 300 -3 12 -9 22 -12 22 -3 0 -31 -20 -61 -44 -72 -56 -106 -64 -145 -33
-29 24 -30 25 -34 145 -2 67 -2 132 2 146 8 32 13 32 190 6z m851 -265 c924
-445 1549 -1296 1701 -2318 22 -148 26 -206 26 -422 0 -219 -3 -272 -26 -430
-48 -326 -134 -607 -270 -890 -262 -542 -653 -975 -1162 -1285 -130 -80 -194
-114 -330 -175 l-51 -23 19 86 c10 48 23 95 29 105 8 14 3 24 -22 46 l-31 29
63 47 c58 45 63 47 75 30 7 -10 15 -23 17 -29 2 -7 16 -6 45 2 33 10 43 19 54
48 10 30 25 42 78 69 40 21 89 58 127 97 l62 63 3 156 4 156 110 109 c167 166
274 314 385 536 65 129 149 336 149 367 0 39 -26 51 -255 111 -126 34 -315 84
-420 111 -104 28 -255 68 -334 90 -79 22 -145 38 -146 37 -1 -2 -12 -40 -25
-85 -17 -63 -27 -83 -40 -83 -22 0 -41 22 -43 49 -1 12 -4 21 -8 21 -4 0 -14
16 -24 36 -20 42 -18 190 3 212 16 18 15 43 -4 70 -18 26 -38 28 -78 7 -30
-16 -65 -19 -81 -7 -5 4 -15 22 -22 40 -9 26 -9 32 3 32 8 0 14 5 14 10 0 6 5
10 12 10 16 0 48 30 48 46 0 7 -8 14 -17 16 -10 3 6 8 35 12 49 7 53 10 48 31
-5 19 -1 24 25 29 17 3 35 3 40 0 5 -3 8 0 7 7 -3 11 25 31 56 42 13 4 -16 98
-32 104 -7 3 -37 29 -67 59 -52 50 -58 53 -98 49 -23 -2 -52 2 -65 9 -23 12
-22 14 58 74 45 34 87 62 93 62 7 0 18 4 25 9 12 7 12 12 0 30 -11 19 -11 24
2 34 9 7 23 32 32 56 l17 43 -36 70 c-25 46 -37 82 -36 106 1 25 -5 43 -18 55
-21 20 -26 85 -9 117 12 23 4 46 -18 55 -22 8 -52 -29 -52 -65 0 -16 -4 -30
-9 -32 -6 -1 -12 -17 -15 -35 -5 -26 -1 -35 20 -52 15 -12 36 -21 47 -21 16 0
18 -3 9 -12 -7 -7 -12 -29 -12 -50 l0 -39 -55 5 c-30 2 -71 13 -92 24 -21 11
-66 32 -101 48 -35 16 -66 32 -68 36 -2 3 5 25 17 47 11 22 22 61 24 88 8 88
30 228 38 241 11 16 -15 16 -31 0 -9 -9 -12 -4 -12 22 0 65 -18 15 -30 -85 -7
-55 -18 -112 -26 -126 -7 -14 -13 -35 -12 -45 0 -10 -2 -54 -5 -97 l-5 -78 45
-34 c44 -34 44 -34 21 -47 -14 -7 -65 -13 -125 -14 -57 -2 -112 -6 -123 -9
-12 -4 -31 -28 -43 -53 -21 -44 -25 -47 -65 -50 -25 -2 -45 -9 -48 -17 -10
-26 -100 -65 -134 -59 -32 7 -30 3 -35 100 -1 17 -5 42 -8 56 -5 18 -1 33 13
51 24 30 26 77 4 123 -12 25 -14 41 -6 62 12 34 -1 62 -27 62 -10 0 -24 7 -32
16 -9 10 -23 14 -43 11 -17 -3 -61 -10 -97 -16 -73 -12 -105 -3 -156 45 -14
13 -31 24 -38 24 -16 0 -32 42 -38 99 -3 24 -12 50 -20 58 -28 28 9 146 62
197 25 24 30 36 29 77 -1 41 3 52 29 76 16 15 32 34 34 40 9 29 417 40 434 13
3 -5 -2 -15 -10 -23 -8 -9 -15 -18 -15 -22 0 -14 37 -44 73 -58 20 -9 37 -21
37 -27 0 -14 71 -80 87 -80 7 0 20 11 29 25 9 14 22 25 29 25 7 0 44 -29 81
-65 38 -36 76 -65 85 -65 26 0 49 -11 49 -22 0 -13 31 -37 47 -38 14 0 103 58
119 79 8 10 24 -1 75 -57 76 -82 149 -206 185 -315 16 -47 33 -81 45 -87 18
-10 89 -8 119 4 8 3 239 50 513 105 275 55 505 105 513 112 23 19 16 63 -27
171 -151 380 -356 640 -666 844 -190 125 -368 207 -603 278 l-136 41 7 30 c12
53 27 82 55 104 37 29 54 27 54 -7 0 -31 16 -52 40 -52 8 0 27 20 43 45 28 48
33 65 18 65 -15 0 -21 29 -10 56 9 25 12 26 62 21 29 -4 63 -15 77 -27 54 -43
74 -50 116 -38 21 7 41 13 42 14 2 2 -1 19 -8 39 -15 46 -64 70 -165 80 -104
10 -115 14 -115 40 0 13 -8 37 -17 54 -17 29 -17 32 1 66 23 43 14 45 211 -50z
m-1490 -48 c-21 -51 -20 -58 11 -47 67 26 80 1 44 -79 -21 -46 -19 -61 9 -61
11 0 25 -15 36 -41 10 -22 27 -47 38 -54 28 -20 12 -35 -38 -35 -36 0 -48 5
-61 24 -8 14 -27 26 -42 28 -22 2 -26 8 -24 27 3 30 -17 58 -29 39 -6 -9 -9
-5 -9 13 0 14 -7 34 -15 45 -19 25 -19 58 0 122 15 48 17 51 53 54 20 2 38 3
40 2 1 0 -5 -17 -13 -37z m649 -104 c-4 -10 -8 -35 -7 -55 1 -21 -2 -36 -6
-33 -11 6 -52 -53 -50 -73 3 -38 -2 -52 -20 -52 -15 0 -20 10 -25 59 -11 92 7
141 49 141 12 0 28 7 35 15 17 21 34 19 24 -2z m66 -141 c0 -10 -6 -27 -14
-38 -15 -19 -15 -19 -30 1 -20 27 -20 43 2 48 34 9 42 7 42 -11z m-808 -29
c10 -9 18 -22 18 -30 0 -17 -41 -33 -86 -33 l-35 0 22 33 c37 52 51 57 81 30z
m328 -157 c0 -8 -5 -18 -11 -22 -6 -3 -9 -14 -6 -25 8 -31 -23 -47 -95 -51
-42 -2 -69 -8 -73 -15 -2 -7 -15 -13 -28 -13 -13 0 -28 -5 -35 -12 -9 -9 -12
-9 -12 0 0 6 16 27 35 46 l34 35 -27 3 c-19 2 -27 8 -26 21 2 19 -11 23 -22 5
-4 -6 2 -19 14 -28 l21 -17 -25 -36 c-36 -54 -17 -59 67 -16 9 4 45 11 80 14
35 4 74 14 87 21 25 16 26 15 13 -19 -10 -27 -87 -72 -96 -57 -13 21 -32 10
-27 -15 4 -23 1 -25 -34 -25 -22 0 -45 -4 -53 -9 -20 -13 -4 -48 28 -59 16 -6
40 -23 55 -39 24 -25 26 -35 24 -88 l-3 -60 -101 -3 c-85 -2 -104 -6 -119 -22
-16 -18 -16 -23 -3 -67 8 -27 13 -68 11 -94 l-5 -46 -74 -17 c-178 -42 -348
-127 -504 -251 -256 -204 -404 -513 -454 -945 -9 -74 -16 -138 -16 -142 0 -5
-9 -8 -20 -8 -22 0 -77 69 -87 109 -8 36 -32 61 -57 61 -12 0 -45 22 -74 48
-51 46 -53 50 -56 107 -1 33 -8 61 -14 63 -7 2 -12 -1 -12 -7 0 -17 -18 -13
-40 9 -15 15 -20 33 -20 74 0 30 -5 56 -11 58 -7 2 -7 12 -1 28 l10 25 11 -27
c16 -43 64 -35 50 7 -2 6 -3 52 -4 104 l0 93 -33 3 c-28 2 -32 0 -26 -14 3 -9
9 -27 11 -41 4 -20 2 -22 -6 -10 -10 13 -12 13 -21 0 -13 -20 -13 -33 2 -24 6
4 8 3 5 -3 -4 -6 -18 -8 -32 -5 -19 3 -25 0 -25 -13 0 -12 -5 -15 -16 -11 -9
3 -22 6 -29 6 -7 0 -16 11 -19 25 -8 30 -16 31 -47 6 -19 -15 -24 -28 -23 -63
0 -24 4 -57 8 -72 4 -18 3 -25 -3 -21 -6 3 -15 25 -21 48 -6 23 -16 52 -22 65
-12 24 5 66 68 167 21 34 24 48 19 95 -3 30 -1 69 4 85 5 17 10 23 10 15 1 -8
17 -39 36 -67 19 -29 35 -57 35 -62 0 -10 46 -61 55 -61 2 0 16 20 30 44 32
55 55 76 55 52 0 -10 5 -14 11 -10 6 3 9 19 7 35 -5 31 1 36 20 17 9 -9 16 -9
28 4 13 13 14 19 3 36 -8 12 -27 27 -43 34 -58 24 -101 19 -109 -12 -5 -21
-27 -28 -27 -10 0 7 -7 7 -20 0 -18 -9 -23 -6 -41 25 -23 38 -39 45 -39 18 -1
-11 -6 -7 -14 12 -15 34 -76 71 -101 61 -12 -4 -11 2 6 27 253 362 681 662
1142 801 107 33 296 77 383 91 40 6 41 6 37 -19 -5 -23 -2 -26 24 -26 19 0 48
13 78 36 40 31 52 36 85 31 21 -3 42 -1 47 4 4 4 46 10 93 12 47 1 93 4 103 5
9 1 17 -4 17 -12z m98 -17 c-10 -28 -55 -59 -87 -59 -17 0 -22 33 -9 61 12 26
18 29 60 29 l47 0 -11 -31z m190 21 c520 -37 890 -152 1242 -385 196 -130 317
-252 442 -445 75 -116 200 -372 187 -384 -2 -2 -211 -45 -464 -96 -253 -50
-468 -93 -478 -96 -12 -4 -20 2 -26 18 -7 19 -3 26 25 46 19 12 34 29 34 37 0
8 7 15 15 15 9 0 12 6 9 15 -8 21 2 19 27 -6 l22 -22 14 34 c12 29 12 34 -2
42 -15 8 -15 10 1 21 10 8 15 20 11 29 -3 9 0 31 7 48 8 20 15 27 18 18 4 -12
7 -12 21 -1 13 12 18 10 29 -7 16 -26 29 -26 61 -1 l26 21 -19 32 c-24 40 -72
65 -145 73 l-55 7 -14 -34 c-8 -19 -18 -38 -23 -42 -4 -5 -15 -34 -23 -65 -14
-51 -19 -58 -50 -68 -19 -6 -39 -18 -44 -26 -7 -12 -20 0 -58 59 -83 127 -222
254 -371 339 -35 20 -37 23 -19 29 12 3 30 2 40 -4 13 -7 22 -7 30 1 8 8 18 6
36 -6 14 -9 39 -16 55 -16 49 0 80 -21 107 -71 39 -70 108 -114 140 -88 18 14
10 117 -12 161 -19 38 -18 43 14 46 15 1 32 9 38 17 6 8 19 12 32 8 34 -9 26
11 -12 30 -81 38 -149 30 -125 -16 10 -17 9 -19 -6 -14 -9 4 -26 7 -37 7 -11
0 -18 5 -15 13 2 6 0 20 -5 30 -8 16 -7 18 11 12 27 -8 28 15 1 40 -11 10 -17
22 -14 26 12 21 -31 20 -73 0 -25 -12 -47 -20 -49 -18 -2 2 -24 -15 -49 -38
-30 -27 -45 -49 -45 -65 0 -22 -5 -25 -35 -27 -20 -1 -33 2 -30 7 7 11 -15 27
-49 36 -24 6 -28 4 -23 -9 3 -9 1 -17 -6 -20 -6 -2 -4 -6 6 -10 11 -4 17 -1
17 8 0 23 30 17 39 -7 12 -32 -5 -39 -45 -20 -28 13 -32 20 -28 39 7 28 -12
31 -21 4 -5 -17 -10 -18 -34 -10 -32 11 -46 51 -30 82 14 25 4 51 -42 103 -34
40 -45 67 -40 97 1 5 -7 11 -18 14 -11 3 -17 11 -15 18 3 7 -2 15 -10 18 -43
17 -70 -36 -42 -83 9 -16 16 -35 16 -43 0 -8 11 -26 25 -41 14 -15 25 -30 25
-33 0 -4 10 -18 23 -31 12 -14 16 -22 9 -18 -17 10 -42 -11 -35 -30 12 -32 -8
-11 -22 23 -9 20 -30 49 -47 65 -42 37 -68 78 -68 105 0 13 -11 30 -26 39 -24
16 -27 16 -65 -5 -31 -18 -46 -21 -67 -14 -43 15 -76 2 -80 -31 -3 -21 -12
-31 -37 -42 -39 -16 -65 -49 -65 -81 0 -26 -8 -28 -120 -39 -134 -12 -125 -14
-123 30 2 22 -4 61 -11 87 -21 70 -7 79 117 79 108 0 101 -6 110 85 4 34 -1
46 -30 83 -19 23 -42 42 -52 42 -10 0 -24 7 -32 16 -18 22 5 35 56 32 37 -2
40 0 37 21 -3 16 1 22 10 19 23 -9 106 40 110 64 2 14 14 25 33 31 39 13 60
32 75 68 7 16 17 29 22 29 5 0 75 -5 156 -10z m-643 -36 c-34 -26 -49 -32 -69
-25 -17 7 -17 8 -2 24 10 10 33 17 54 17 35 -1 36 -1 17 -16z m-1735 -68 c34
-63 34 -65 16 -85 -15 -17 -31 -21 -80 -21 -58 0 -63 -2 -89 -35 -24 -31 -33
-35 -73 -35 l-45 0 19 28 c28 38 200 212 210 212 4 0 23 -29 42 -64z m2470
-347 c0 -14 5 -19 14 -16 10 4 17 -4 22 -26 3 -17 26 -56 51 -86 30 -37 42
-59 37 -70 -5 -9 -8 -31 -8 -49 1 -31 -1 -33 -25 -27 -30 7 -58 31 -48 42 4 3
13 1 19 -5 35 -35 37 5 3 46 -14 17 -25 35 -25 41 0 6 -6 11 -13 11 -14 0 -37
40 -37 62 0 6 -7 19 -16 29 -11 12 -14 27 -10 44 8 30 36 34 36 4z m-137 -23
c9 -7 17 -23 17 -35 0 -26 39 -86 69 -107 20 -14 56 -72 49 -79 -2 -2 -141 20
-154 25 -4 1 6 109 12 133 7 30 -6 36 -29 13 -8 -9 -12 -26 -10 -40 3 -14 1
-26 -5 -26 -5 0 -12 -17 -16 -38 l-6 -39 -107 5 c-60 2 -112 8 -118 13 -13 13
14 60 42 74 38 19 53 37 53 63 0 24 1 25 58 19 45 -4 64 -1 87 13 37 23 36 22
58 6z m-26 -88 c-3 -7 -5 -2 -5 12 0 14 2 19 5 13 2 -7 2 -19 0 -25z m3 -52
c0 -22 -11 -46 -21 -46 -5 0 -9 14 -9 30 0 20 5 30 15 30 8 0 15 -6 15 -14z
m730 -8 c0 -6 7 -20 17 -30 14 -16 15 -18 0 -18 -12 0 -15 -9 -14 -37 2 -32 7
-38 27 -41 55 -7 76 -22 88 -65 33 -118 35 -138 19 -154 -15 -15 -20 -14 -57
11 -24 16 -49 44 -62 70 -24 50 -62 76 -111 76 -77 0 -128 87 -68 117 13 6 28
19 33 27 5 9 17 16 26 17 9 0 31 9 47 19 35 22 55 25 55 8z m165 -93 c22 -8
32 -14 23 -15 -10 0 -18 -6 -18 -14 0 -24 -37 -25 -59 -2 -42 45 -19 58 54 31z
m-370 -73 c-3 -3 -11 0 -18 7 -9 10 -8 11 6 5 10 -3 15 -9 12 -12z m-395 -22
c156 -37 321 -112 413 -187 32 -25 30 -28 -7 -13 -22 8 -26 7 -26 -10 0 -21
25 -30 57 -19 23 9 36 0 25 -16 -4 -6 -29 -25 -56 -43 l-49 -33 -31 30 c-18
17 -41 31 -52 31 -11 0 -51 29 -89 65 -75 72 -104 81 -131 40 l-16 -24 -30 22
c-17 12 -34 31 -38 43 -5 11 -26 29 -47 39 -53 24 -64 40 -49 70 13 30 19 30
126 5z m-590 2 c0 -4 -14 -20 -31 -35 -29 -25 -31 -32 -27 -72 5 -39 2 -48
-23 -72 -42 -40 -65 -94 -75 -175 -3 -21 -1 -38 5 -38 15 0 34 -68 27 -96 -4
-13 -2 -24 4 -24 5 0 10 -7 10 -15 0 -8 18 -24 40 -35 22 -11 40 -25 40 -30 0
-5 21 -18 47 -30 39 -17 52 -19 74 -10 15 7 35 10 45 9 11 -2 37 3 58 10 37
13 41 13 54 -8 8 -11 25 -21 38 -21 27 0 32 -22 10 -42 -12 -11 -11 -19 5 -50
23 -45 24 -105 3 -133 -12 -15 -13 -34 -8 -83 3 -34 7 -76 8 -94 1 -21 8 -34
21 -39 33 -13 80 -10 101 6 10 8 27 15 36 15 10 0 22 9 28 20 7 14 21 20 44
20 37 0 55 16 81 72 20 43 36 48 160 46 77 -1 155 19 155 40 0 5 -20 22 -45
40 -25 17 -45 36 -45 42 0 14 2 14 77 -24 157 -77 178 -86 201 -80 12 4 28 1
36 -5 11 -9 17 -8 28 8 8 12 18 18 21 14 4 -4 2 8 -4 26 -10 28 -9 35 6 49 10
10 15 11 11 4 -4 -7 11 -51 34 -99 34 -70 40 -90 31 -105 -6 -10 -11 -25 -11
-33 0 -8 -4 -15 -8 -15 -5 0 -16 -16 -25 -36 -10 -19 -13 -33 -8 -30 5 4 12 2
16 -4 3 -5 -9 -16 -27 -23 -18 -8 -66 -40 -107 -72 -64 -50 -72 -60 -58 -70
15 -11 14 -13 -9 -24 -14 -6 -24 -17 -21 -24 6 -20 38 -20 60 1 12 11 39 22
59 23 34 3 44 -2 94 -49 30 -29 52 -57 49 -62 -3 -6 1 -7 9 -4 10 4 16 1 16
-7 0 -8 6 -26 14 -41 13 -25 13 -27 -11 -33 -14 -3 -32 -13 -40 -20 -8 -8 -27
-15 -43 -15 -35 0 -45 -13 -30 -39 9 -18 6 -20 -22 -23 -18 -2 -51 0 -73 4
-22 3 -44 3 -50 -1 -5 -5 -23 -11 -40 -15 l-30 -8 28 26 c25 23 37 56 20 56
-5 0 -28 -14 -52 -30 -24 -17 -48 -30 -54 -30 -30 0 -97 -60 -126 -112 -18
-32 -41 -64 -52 -71 -12 -9 -17 -20 -13 -31 5 -12 2 -15 -10 -10 -13 5 -16 0
-16 -25 0 -17 5 -31 10 -31 6 0 10 7 10 15 0 9 6 18 14 21 8 3 20 20 27 37 7
18 23 44 37 59 13 15 30 37 36 49 12 24 36 30 122 29 32 -1 57 4 66 13 18 19
69 29 86 18 12 -7 11 -11 -2 -22 -9 -8 -23 -20 -31 -26 -7 -7 -20 -13 -29 -13
-13 0 -13 -5 2 -45 22 -60 59 -74 123 -46 34 16 47 17 56 8 17 -17 20 -49 6
-54 -7 -3 -13 3 -13 12 0 11 -7 15 -22 13 -30 -4 -30 -40 -1 -53 21 -9 23 -15
21 -95 -1 -63 2 -93 15 -115 9 -16 23 -44 31 -61 17 -35 40 -57 49 -47 19 18
3 -45 -28 -113 -30 -66 -37 -75 -50 -64 -25 21 -42 -2 -26 -36 7 -16 8 -30 3
-33 -5 -3 -13 -17 -17 -31 -4 -14 -11 -27 -14 -30 -4 -3 -17 -21 -28 -40 -37
-60 -63 -83 -79 -69 -9 7 -14 8 -14 1 0 -6 5 -14 11 -18 14 -8 -37 -61 -115
-120 -138 -105 -277 -167 -456 -206 -115 -26 -398 -30 -520 -9 -253 44 -464
142 -640 299 -155 137 -312 452 -314 630 -1 60 2 75 17 83 9 6 17 18 17 27 0
10 5 23 11 29 6 6 8 17 4 23 -5 8 -20 -2 -46 -31 -26 -30 -38 -39 -39 -27 0 9
5 20 10 23 6 4 17 23 26 43 19 46 42 72 64 72 30 0 80 162 65 210 -4 13 0 31
12 48 10 15 23 43 28 62 6 19 19 39 30 45 31 16 65 48 65 62 0 7 5 13 10 13
15 0 12 30 -2 30 -7 0 -5 5 5 11 27 16 59 4 81 -30 25 -36 80 -48 122 -26 16
8 38 15 50 15 11 0 36 11 54 25 19 14 36 21 38 15 2 -5 7 -8 12 -5 8 5 59 -18
170 -75 60 -32 90 -36 108 -18 17 17 15 38 -3 38 -9 0 -27 7 -41 16 -18 12
-23 22 -19 38 5 17 4 18 -4 6 -9 -12 -11 -10 -11 11 0 14 -3 29 -7 32 -3 4 -7
18 -9 31 -1 14 -10 41 -19 60 -13 26 -14 39 -6 55 16 30 13 60 -10 98 -14 22
-19 43 -16 61 3 15 1 35 -4 44 -13 25 -73 23 -115 -3 -19 -11 -38 -18 -44 -14
-5 3 -10 2 -10 -3 0 -17 -44 -29 -75 -20 -35 9 -81 -6 -95 -32 -9 -16 -69 -36
-96 -32 -6 1 -22 -23 -35 -53 -13 -30 -27 -55 -31 -55 -35 0 -51 -89 -22 -121
12 -14 13 -22 4 -38 -6 -12 -10 -27 -9 -34 5 -39 -14 -51 -62 -37 -42 12 -59
-2 -59 -46 0 -39 -9 -42 -65 -18 -20 8 -40 13 -43 9 -21 -21 -1 -85 27 -85 19
0 31 -25 31 -67 0 -27 -56 -63 -99 -63 l-31 0 0 149 c0 190 6 239 32 243 24 4
19 24 -4 21 -22 -3 -22 3 -3 132 56 397 192 661 433 842 124 94 268 163 432
208 88 24 140 31 140 17z m-1690 -204 c11 -21 12 -37 4 -75 -6 -29 -6 -63 -1
-86 9 -39 4 -55 -57 -153 -32 -51 -36 -85 -16 -154 15 -52 59 -122 71 -115 4
3 11 0 15 -6 4 -8 3 -9 -4 -5 -14 9 -15 -3 -2 -24 5 -8 12 -11 16 -8 9 10 -2
49 -21 73 -14 17 -16 18 -11 2 4 -11 2 -16 -5 -12 -6 4 -8 13 -6 19 3 7 1 32
-4 57 -9 49 3 104 26 113 8 3 17 -3 20 -15 12 -36 101 -53 137 -25 24 18 41
67 28 80 -15 15 -12 26 9 26 17 0 19 -8 17 -105 -1 -110 -12 -129 -32 -59
l-12 39 -11 -28 c-19 -49 -24 -77 -12 -77 7 0 11 -21 11 -52 0 -57 26 -98 63
-98 17 0 19 -5 14 -41 -7 -52 -1 -68 30 -80 19 -7 23 -14 18 -30 -6 -18 -4
-20 13 -15 11 4 23 2 27 -4 4 -6 -5 -10 -21 -10 -27 0 -27 0 -8 -19 10 -10 24
-16 29 -12 18 10 79 10 91 0 7 -5 15 -24 18 -42 10 -50 57 -111 89 -115 28 -3
38 -34 17 -47 -6 -4 -10 -14 -8 -23 1 -10 0 -21 -3 -27 -4 -5 -9 -27 -13 -48
-5 -28 -3 -39 8 -43 10 -4 14 -21 14 -57 0 -81 36 -388 58 -500 13 -62 14 -84
4 -107 -6 -15 -11 -43 -9 -62 2 -21 -8 -53 -26 -88 -16 -30 -35 -66 -41 -80
-20 -43 -96 -105 -176 -144 -32 -15 -78 -48 -103 -72 -37 -37 -46 -43 -51 -29
-4 9 -1 27 6 41 21 38 5 39 -34 2 -35 -32 -36 -35 -39 -113 -1 -44 1 -92 5
-107 6 -21 2 -32 -22 -58 -21 -22 -30 -42 -30 -65 0 -18 -7 -38 -15 -45 -8 -7
-15 -19 -15 -26 0 -29 -21 -12 -83 68 -273 351 -406 745 -432 1283 -8 155 9
445 27 456 6 4 28 10 47 14 41 8 101 49 101 70 0 21 -59 58 -101 65 l-37 5 24
112 c50 243 198 604 285 695 36 38 37 39 70 25 19 -7 41 -25 49 -39z m3315 -1
c46 -7 81 -29 94 -58 7 -16 12 -31 10 -32 -2 -2 -12 -9 -22 -16 -15 -12 -19
-12 -30 3 -7 9 -29 19 -50 21 -31 2 -37 0 -37 -15 0 -11 -5 -22 -11 -26 -6 -3
-9 -17 -6 -31 3 -19 -6 -35 -44 -72 -27 -27 -49 -54 -49 -61 0 -6 -10 -20 -22
-30 -21 -17 -25 -17 -41 -3 -9 9 -22 34 -28 56 -13 48 2 69 49 71 28 1 30 4
42 64 7 35 18 68 24 75 6 7 17 25 24 41 11 25 16 27 45 22 18 -3 41 -8 52 -9z
m-3215 -102 c5 -3 10 3 10 15 0 12 5 18 10 15 15 -9 50 4 50 20 0 23 20 28 40
10 12 -10 19 -12 22 -5 5 16 54 -4 67 -29 13 -24 -11 -37 -29 -16 -16 19 -32
8 -25 -16 5 -13 2 -19 -9 -19 -9 0 -30 -22 -47 -50 -31 -51 -49 -63 -49 -33 0
9 -3 13 -6 10 -12 -12 -94 136 -93 168 0 29 1 28 24 -17 14 -26 29 -49 35 -53z
m-505 65 c21 -20 21 -20 72 0 l51 19 -58 -122 c-68 -142 -139 -348 -171 -497
l-23 -106 -46 48 c-44 46 -49 48 -101 48 -37 0 -71 -8 -108 -25 l-54 -26 -39
38 c-38 37 -39 37 -129 40 -50 1 -93 3 -95 5 -3 3 46 198 72 286 5 16 14 22
35 22 25 0 32 6 45 41 14 34 20 40 38 34 12 -3 58 -16 103 -28 l82 -22 21 23
c11 12 31 22 44 22 12 0 25 2 28 5 13 13 -17 93 -51 135 -20 25 -42 53 -50 63
-13 16 -4 17 150 17 148 0 165 -2 184 -20z m3001 -237 c-7 -104 -26 -214 -41
-236 -12 -17 -13 -17 -18 5 -9 34 0 117 14 134 6 8 13 38 15 67 5 70 14 107
25 107 6 0 8 -31 5 -77z m655 20 c-9 -17 -10 -17 -17 1 -4 11 -2 21 7 27 18
11 24 -5 10 -28z m-369 -154 c-10 -67 -4 -123 14 -137 17 -13 16 -14 -16 -8
-19 4 -41 13 -49 21 -13 13 -12 17 3 34 10 11 13 22 8 25 -10 6 -1 63 13 85
12 20 30 6 27 -20z m-3767 -269 l40 -38 50 25 c35 19 67 26 107 27 50 1 61 -3
88 -29 53 -50 61 -75 51 -151 -6 -37 -14 -70 -19 -73 -5 -3 -15 -33 -23 -66
-7 -33 -23 -73 -36 -88 -13 -16 -23 -34 -23 -41 0 -6 -16 -27 -37 -46 -50 -47
-87 -133 -74 -171 9 -27 8 -29 -42 -47 -29 -11 -62 -23 -74 -26 -15 -5 -23
-15 -23 -29 0 -12 -4 -28 -9 -35 -12 -20 -136 -19 -202 2 l-56 18 -6 96 c-8
126 7 370 33 547 11 77 23 147 25 156 4 13 20 14 98 11 91 -4 93 -5 132 -42z
m2366 -66 c3 -27 13 -65 22 -85 10 -23 12 -40 6 -50 -11 -18 -12 -66 0 -73 15
-9 22 -68 10 -82 -9 -11 -8 -14 3 -14 11 0 15 -10 13 -35 -1 -19 3 -35 9 -35
6 0 27 -14 46 -30 27 -23 31 -30 17 -30 -11 0 -31 6 -45 14 -205 107 -227 113
-262 72 -7 -9 -18 -16 -25 -16 -7 0 -36 -8 -65 -17 -42 -13 -53 -14 -60 -3 -4
7 -13 9 -20 5 -8 -5 -23 5 -40 25 -21 24 -36 32 -63 33 -20 0 -34 4 -32 7 3 4
-2 16 -10 26 -8 10 -15 29 -15 41 0 16 5 20 20 16 24 -6 27 12 4 25 -13 8 -14
11 -2 23 8 8 23 30 34 49 24 44 40 57 85 70 19 5 45 21 57 35 26 29 92 36 92
10 0 -13 4 -13 23 -3 12 7 24 16 27 19 15 19 130 59 155 54 6 -1 13 -24 16
-51z m-1827 -81 c61 -28 54 -55 -21 -89 -18 -7 -43 -14 -56 -14 -26 0 -25 -3
-12 83 5 31 10 37 30 37 13 0 40 -7 59 -17z m-226 -243 c-12 -152 -4 -477 16
-620 41 -285 95 -467 211 -705 81 -164 155 -282 255 -400 115 -136 106 -119
82 -152 -11 -16 -23 -51 -28 -78 -4 -27 -15 -63 -25 -80 -11 -16 -19 -33 -19
-38 0 -4 17 -26 39 -50 53 -58 60 -74 67 -159 4 -40 13 -86 21 -101 8 -15 11
-33 7 -39 -4 -6 -3 -8 3 -5 5 3 19 -11 31 -32 12 -21 35 -44 51 -51 23 -9 39
-31 72 -98 23 -48 43 -87 43 -88 1 -1 16 -4 34 -7 30 -6 34 -4 44 24 9 28 14
30 41 25 16 -3 58 -6 94 -6 62 0 64 -1 57 -22 -4 -13 -21 -40 -38 -60 -24 -29
-38 -38 -63 -38 -34 0 -48 -12 -40 -35 7 -18 79 -1 122 29 16 11 52 28 80 38
46 16 50 19 48 48 -1 26 5 33 36 49 20 11 59 22 86 26 28 4 57 14 66 22 9 7
34 17 55 20 22 3 51 15 66 26 21 15 36 18 70 13 26 -4 64 0 98 9 30 8 71 15
90 14 31 0 27 -3 -35 -24 -38 -13 -84 -24 -101 -25 -17 0 -53 -9 -80 -21 -103
-44 -134 -59 -134 -67 0 -5 -16 -27 -36 -50 l-36 -42 36 0 c20 0 36 -5 36 -11
0 -6 9 -8 20 -4 11 3 20 2 20 -3 0 -5 10 -20 23 -34 17 -20 27 -24 42 -18 11
5 28 9 38 9 19 1 18 -19 -4 -64 -7 -14 -7 -30 0 -48 9 -22 17 -27 45 -27 30 0
37 -6 59 -42 17 -30 23 -53 20 -74 -3 -18 0 -41 6 -53 15 -28 5 -27 -100 3
-427 124 -851 361 -1184 660 -447 403 -773 943 -920 1525 -34 135 -85 439 -85
506 l0 35 36 -15 c45 -19 159 -30 208 -21 33 6 36 10 36 40 0 33 2 35 73 58
l72 24 0 54 c1 64 17 98 74 157 23 23 41 48 41 56 0 8 9 22 19 31 11 10 22 31
25 47 3 16 9 43 12 60 11 59 12 23 2 -101z m3327 -50 c-3 -5 -10 -10 -16 -10
-5 0 -9 5 -9 10 0 6 7 10 16 10 8 0 12 -4 9 -10z m-1826 -62 c-18 -16 -36 -28
-40 -28 -3 0 -9 -16 -12 -36 -3 -20 -14 -45 -23 -55 -12 -13 -17 -34 -16 -63
2 -43 -19 -153 -33 -175 -3 -6 -12 -11 -20 -11 -17 0 -58 -48 -75 -89 -18 -45
-27 -25 -35 78 -3 47 -8 96 -11 109 -4 18 0 22 21 22 38 0 105 37 115 65 5 14
5 36 0 54 -9 31 -38 69 -49 63 -3 -1 -7 7 -9 19 -3 18 0 20 20 14 13 -4 26
-13 30 -19 4 -6 8 -8 8 -4 0 4 11 3 25 -2 24 -9 25 -8 25 34 0 23 2 45 5 48 3
3 28 5 56 4 l50 -1 -32 -27z m-379 -11 c0 -34 -7 -50 -19 -42 -10 6 0 75 10
75 5 0 9 -15 9 -33z m2124 -199 c-54 -48 -138 -81 -100 -40 9 11 34 25 56 32
22 7 47 21 56 32 10 10 19 16 22 14 2 -3 -13 -20 -34 -38z m46 -37 c0 -13 -27
-21 -46 -14 -13 5 -13 7 -2 14 17 11 48 11 48 0z m185 -190 c3 -5 1 -12 -5
-16 -5 -3 -10 1 -10 9 0 18 6 21 15 7z m-2161 -85 c-3 -8 -12 -17 -20 -20 -8
-3 -15 -16 -15 -28 -1 -18 -2 -19 -6 -5 -3 11 5 29 18 43 26 28 31 30 23 10z
m-99 -293 c40 -134 133 -315 212 -413 175 -217 428 -365 738 -432 135 -29 429
-36 566 -14 252 42 517 170 658 320 41 42 51 45 51 12 0 -22 49 -76 70 -76 4
0 10 -9 13 -20 4 -16 0 -20 -19 -20 -20 0 -24 -5 -24 -29 0 -16 -7 -34 -15
-41 -19 -16 -19 -29 1 -51 15 -16 17 -16 36 3 16 16 27 18 56 13 47 -9 52 -12
52 -36 0 -11 -7 -19 -16 -19 -25 0 -11 -24 26 -42 35 -18 43 -27 54 -64 5 -16
0 -22 -21 -30 l-28 -10 50 -33 c28 -19 88 -72 134 -118 62 -62 87 -81 95 -73
8 8 6 15 -7 25 -13 9 -16 20 -11 39 6 25 8 26 55 20 56 -7 79 5 79 42 0 28 30
40 60 24 18 -9 25 -8 41 6 10 9 22 14 27 10 4 -4 0 -13 -8 -19 -9 -7 -48 -38
-88 -70 -119 -95 -276 -187 -432 -252 -75 -31 -203 -76 -205 -72 -1 1 -26 37
-55 80 -49 71 -55 77 -67 61 -16 -22 -27 -78 -20 -106 4 -15 -1 -27 -19 -40
-13 -11 -24 -26 -24 -33 0 -36 -411 -85 -715 -85 -645 0 -1165 158 -1601 486
-104 79 -195 164 -188 176 14 23 32 124 24 132 -12 12 -24 -19 -16 -41 4 -10
4 -14 0 -11 -3 4 -15 -2 -27 -13 -26 -24 -46 -24 -63 -1 -19 25 -17 66 5 86
12 11 16 25 13 41 -3 16 3 33 17 47 12 13 28 32 36 43 13 18 14 18 15 3 0 -10
4 -18 9 -18 17 0 26 24 27 75 1 28 2 64 3 81 2 49 68 117 157 160 41 21 74 40
74 44 0 4 15 15 34 25 19 11 37 26 40 34 4 9 20 39 36 66 49 82 63 118 61 157
-2 34 4 58 14 58 2 0 16 -39 30 -87z m3005 -59 c245 -65 449 -121 453 -124 13
-11 -108 -290 -125 -290 -5 0 -7 -4 -4 -9 8 -13 -88 -176 -163 -276 -95 -127
-212 -250 -222 -233 -6 9 -12 8 -28 -6 -14 -13 -29 -17 -49 -13 -48 10 -72 -1
-72 -34 0 -35 -29 -45 -88 -30 -42 12 -64 36 -76 85 -4 16 -20 48 -35 70 -57
84 -60 94 -83 299 -11 103 -3 147 25 147 22 0 29 89 11 118 -9 13 -14 39 -12
60 l3 37 -58 6 c-32 4 -63 11 -68 16 -15 15 11 63 33 63 11 0 17 -4 13 -9 -9
-15 34 -24 51 -10 11 9 18 8 33 -5 28 -25 58 -6 67 41 l7 36 17 -23 c25 -34
43 -17 36 34 -3 22 -6 56 -6 74 1 25 -4 32 -18 32 -10 0 -22 -3 -26 -7 -4 -5
-12 -9 -17 -9 -5 -1 -13 -2 -19 -3 -5 0 -10 -12 -10 -25 0 -13 -6 -29 -14 -35
-11 -9 -14 -3 -19 36 -3 26 -12 52 -21 58 -23 18 -9 58 18 51 11 -3 221 -58
466 -122z m-475 -21 c-4 -15 -1 -23 7 -23 22 1 48 26 48 46 0 11 12 24 27 32
38 17 44 15 41 -10 -1 -13 2 -40 6 -61 11 -50 3 -56 -28 -21 -26 30 -27 30
-30 -29 -1 -15 -10 -35 -19 -45 -17 -16 -19 -16 -37 8 -18 24 -19 24 -39 6
-18 -16 -21 -17 -26 -3 -4 8 -15 17 -26 20 -18 5 -17 9 11 78 17 40 36 77 43
81 14 9 29 -45 22 -79z m-241 -98 c3 -8 1 -15 -4 -15 -6 0 -10 7 -10 15 0 8 2
15 4 15 2 0 6 -7 10 -15z m193 -85 l43 0 0 -42 c0 -24 6 -50 13 -59 19 -25 10
-96 -14 -102 -28 -7 -34 -52 -21 -167 21 -187 25 -202 70 -270 41 -60 62 -110
47 -110 -19 0 -67 45 -99 94 -19 29 -54 77 -78 107 -62 79 -89 137 -75 160 9
15 7 24 -10 46 -12 15 -26 27 -32 26 -6 -2 -11 5 -11 14 0 9 -9 26 -19 37 -26
28 -34 66 -19 93 120 204 119 203 141 188 12 -8 41 -15 64 -15z m-2944 -97
c-4 -10 -11 -21 -16 -24 -5 -4 -13 -24 -17 -45 l-8 -39 -1 40 c-1 39 20 85 39
85 5 0 6 -8 3 -17z m-2 -55 c5 -46 3 -171 -2 -180 -4 -6 -14 12 -23 40 -13 38
-15 56 -7 71 6 11 11 33 11 50 0 29 19 45 21 19z m2761 -140 c19 -27 -2 -41
-30 -19 -27 20 -45 84 -28 101 8 8 15 1 28 -27 10 -21 23 -46 30 -55z m58 -58
c7 -14 7 -25 -1 -38 -9 -14 -8 -25 5 -50 9 -17 16 -33 16 -36 0 -2 -17 -2 -38
1 -27 4 -43 0 -54 -11 -13 -13 -18 -13 -27 -2 -8 10 -7 16 4 26 8 7 15 25 15
41 0 24 4 29 26 29 23 0 25 3 19 30 -5 23 -3 30 9 30 8 0 20 -9 26 -20z m150
-302 c11 -20 34 -49 51 -65 17 -15 47 -44 67 -63 20 -19 39 -34 43 -33 4 1 2
-14 -4 -34 l-11 -36 -61 65 c-33 36 -79 78 -102 93 -44 28 -54 45 -28 45 18 0
19 13 3 57 -9 23 -22 37 -45 45 -31 11 -47 31 -20 26 6 -2 11 4 9 12 -4 22 75
-68 98 -112z m-3002 45 c-13 -12 -17 -12 -28 2 -12 15 -11 19 10 35 25 19 25
19 28 -2 2 -11 -3 -27 -10 -35z m-53 -123 c136 -142 407 -322 646 -430 97 -44
275 -107 383 -135 l69 -19 -63 -13 c-35 -7 -89 -11 -120 -10 -44 1 -63 -2 -78
-16 -11 -10 -37 -21 -58 -24 -22 -3 -50 -14 -64 -24 -14 -9 -47 -20 -74 -23
-27 -3 -64 -16 -83 -27 -29 -18 -34 -26 -31 -51 4 -26 1 -29 -36 -40 -23 -6
-52 -19 -66 -28 -50 -33 -53 -34 -42 -13 6 11 19 26 28 34 21 17 48 79 39 88
-4 3 -37 6 -73 7 -37 1 -81 4 -99 8 -29 7 -33 4 -48 -23 -8 -17 -20 -31 -26
-31 -18 0 -49 20 -49 32 0 19 -54 122 -72 138 -10 8 -29 23 -42 32 -44 32 -84
117 -91 193 -8 90 -20 121 -67 172 -21 24 -38 47 -38 53 0 5 9 24 20 42 11 18
20 50 20 71 0 23 8 49 22 67 25 34 34 31 93 -30z m3482 -327 l-7 -147 -52 -54
c-31 -31 -82 -68 -122 -88 -57 -30 -71 -42 -83 -73 -11 -29 -23 -41 -48 -48
-32 -10 -34 -9 -45 18 -7 16 -16 29 -20 29 -11 0 -122 -83 -139 -104 -12 -14
-12 -18 5 -31 10 -8 22 -15 27 -15 4 0 7 -12 7 -26 0 -16 -4 -23 -12 -18 -7 4
-8 3 -4 -5 4 -6 2 -44 -5 -84 -14 -78 -35 -107 -98 -133 -18 -8 -34 -14 -36
-14 -1 0 -16 20 -34 45 -18 25 -36 45 -41 45 -5 0 -27 -33 -49 -74 -39 -71
-55 -86 -87 -86 -23 0 -17 24 30 113 25 47 59 132 76 189 24 75 39 110 60 128
26 24 27 29 25 100 -1 41 -5 89 -10 106 -7 30 -5 32 26 39 123 27 446 192 574
294 28 22 54 40 59 40 5 1 6 -60 3 -146z m-791 -33 c26 -39 45 -72 43 -74 -10
-8 -151 -38 -156 -32 -3 3 6 15 21 27 23 18 26 26 20 55 -5 29 10 94 22 94 2
0 25 -32 50 -70z m121 -217 c6 -27 9 -73 6 -103 -4 -44 -11 -60 -34 -82 -16
-15 -29 -34 -29 -42 0 -32 -64 -205 -101 -273 -21 -40 -39 -83 -39 -97 0 -28
3 -27 -180 -70 -118 -28 -278 -51 -287 -42 -3 3 20 34 51 70 31 35 56 71 56
80 0 21 20 20 50 -4 34 -27 41 -25 81 16 39 41 69 56 86 42 8 -6 19 0 35 22
18 25 29 30 53 28 30 -3 30 -3 37 57 3 33 11 74 16 90 13 42 -4 75 -38 75 -24
0 -28 5 -38 51 -11 47 -11 52 9 68 19 15 20 21 11 54 -10 37 -10 37 26 47 21
5 75 20 122 34 47 13 88 24 91 25 3 1 10 -20 16 -46z m-1467 -52 c180 -27 465
-44 625 -36 151 7 391 31 487 49 47 9 70 10 78 2 17 -17 11 -60 -9 -73 -19
-12 -19 -14 -3 -75 15 -54 21 -63 42 -66 39 -6 42 -15 26 -80 -9 -33 -16 -72
-16 -86 0 -22 -4 -26 -29 -26 -19 0 -36 -8 -49 -24 -17 -22 -21 -23 -34 -10
-13 13 -21 8 -68 -40 l-54 -55 -39 29 c-42 31 -57 31 -57 1 0 -14 -71 -109
-129 -174 -14 -15 -340 -26 -498 -17 -167 10 -392 39 -497 66 -74 18 -99 48
-90 105 5 27 0 44 -20 73 -14 22 -26 43 -26 47 0 5 -16 9 -35 9 -43 0 -58 22
-39 59 30 56 10 90 -41 71 -22 -8 -25 -7 -25 11 0 14 -5 19 -14 16 -9 -4 -17
2 -21 14 -4 11 -14 19 -23 18 -9 -1 -30 -1 -45 0 l-29 1 26 31 c14 17 26 35
26 40 0 9 76 49 95 49 5 0 26 9 46 19 20 11 46 17 61 14 14 -3 39 2 56 11 17
9 39 16 49 16 10 1 34 9 53 20 19 10 46 17 60 15 14 -1 86 -12 160 -24z m1448
-512 c-24 -9 -54 -20 -67 -24 l-23 -7 28 49 c44 78 43 77 76 36 l29 -37 -43
-17z"/>
<path d="M1327 4169 c-36 -27 -54 -59 -33 -59 20 0 87 60 80 71 -8 13 -16 11
-47 -12z m18 -19 c-10 -11 -23 -20 -28 -20 -6 0 -2 9 8 20 10 11 23 20 28 20
6 0 2 -9 -8 -20z"/>
<path d="M3794 4579 c-8 -13 34 -49 58 -49 28 0 21 16 -17 39 -21 12 -37 16
-41 10z"/>
<path d="M2530 4079 c0 -5 5 -7 10 -4 6 3 10 8 10 11 0 2 -4 4 -10 4 -5 0 -10
-5 -10 -11z"/>
<path d="M3190 3986 c0 -2 7 -7 16 -10 8 -3 12 -2 9 4 -6 10 -25 14 -25 6z"/>
<path d="M2205 3770 c3 -5 8 -10 11 -10 2 0 4 5 4 10 0 6 -5 10 -11 10 -5 0
-7 -4 -4 -10z"/>
<path d="M2240 3750 c0 -5 5 -10 11 -10 5 0 7 5 4 10 -3 6 -8 10 -11 10 -2 0
-4 -4 -4 -10z"/>
<path d="M4145 3750 c-3 -5 -1 -10 4 -10 6 0 11 5 11 10 0 6 -2 10 -4 10 -3 0
-8 -4 -11 -10z"/>
<path d="M2180 3635 c0 -8 2 -15 4 -15 2 0 6 7 10 15 3 8 1 15 -4 15 -6 0 -10
-7 -10 -15z"/>
<path d="M2198 3619 c-11 -18 -22 -27 -29 -23 -7 4 -9 3 -6 -3 4 -6 0 -16 -8
-23 -8 -7 -15 -21 -15 -30 0 -10 -17 -36 -37 -57 -69 -71 -90 -134 -59 -176
17 -22 32 -5 18 19 -12 22 25 94 49 94 12 0 19 11 24 40 4 22 12 43 17 46 6 4
8 2 4 -4 -3 -6 -2 -13 3 -17 14 -8 40 47 43 89 2 21 8 36 16 36 6 0 12 9 12
20 0 29 -12 25 -32 -11z m-22 -86 c-11 -11 -19 6 -11 24 8 17 8 17 12 0 3 -10
2 -21 -1 -24z m-76 -88 c-13 -14 -26 -23 -28 -20 -4 4 38 44 47 45 3 0 -6 -11
-19 -25z m-37 -50 c-3 -9 -8 -14 -10 -11 -3 3 -2 9 2 15 9 16 15 13 8 -4z"/>
<path d="M3566 3593 c-15 -14 -26 -32 -24 -41 3 -16 10 -17 66 -10 6 1 12 5
12 9 0 4 10 11 23 15 23 7 37 22 37 40 0 6 -19 11 -44 11 -33 1 -50 -5 -70
-24z m92 2 c4 -4 -86 -45 -98 -45 -5 0 -7 7 -4 15 4 8 12 15 19 15 7 0 15 7
19 15 4 11 13 14 33 9 16 -4 29 -8 31 -9z"/>
<path d="M3865 3590 c-3 -5 -2 -10 4 -10 5 0 13 5 16 10 3 6 2 10 -4 10 -5 0
-13 -4 -16 -10z"/>
<path d="M2147 3453 c-4 -3 -7 -15 -7 -25 0 -26 24 -17 28 10 3 21 -8 29 -21
15z"/>
<path d="M2905 3420 c-3 -5 -1 -10 4 -10 6 0 11 5 11 10 0 6 -2 10 -4 10 -3 0
-8 -4 -11 -10z"/>
<path d="M3198 3403 c7 -3 16 -2 19 1 4 3 -2 6 -13 5 -11 0 -14 -3 -6 -6z"/>
<path d="M2950 3336 c15 -15 39 -16 33 -1 -2 8 -13 13 -24 12 -12 -1 -15 -5
-9 -11z"/>
<path d="M3176 3333 c-8 -8 -38 -73 -40 -85 -3 -18 -16 -17 -26 1 -6 12 -19
21 -30 21 -10 0 -22 9 -25 20 -4 11 -11 18 -16 15 -5 -4 -9 -1 -9 5 0 6 -4 8
-10 5 -6 -4 -6 -10 0 -18 50 -62 59 -77 55 -95 -8 -45 35 -92 85 -92 13 0 20
7 20 20 0 11 7 20 15 20 15 0 18 -9 19 -60 1 -28 26 -36 80 -26 52 11 91 118
60 168 -5 7 -9 26 -9 42 0 26 -6 32 -50 47 -53 19 -107 24 -119 12z m127 -30
c28 -6 36 -30 16 -50 -8 -8 -5 -14 10 -22 27 -15 28 -70 4 -109 -23 -36 -32
-42 -70 -42 -31 0 -33 2 -33 34 0 25 -7 39 -22 50 -28 20 -38 20 -38 1 0 -8
-5 -15 -11 -15 -5 0 -7 -4 -4 -10 3 -5 -2 -10 -12 -10 -22 0 -55 64 -46 87 4
10 8 11 13 3 4 -7 17 -9 34 -4 22 5 27 12 25 33 -6 62 20 85 76 68 17 -5 42
-11 58 -14z"/>
<path d="M3460 3300 c0 -5 5 -10 10 -10 6 0 10 5 10 10 0 6 -4 10 -10 10 -5 0
-10 -4 -10 -10z"/>
<path d="M3010 3100 c0 -5 5 -10 11 -10 5 0 7 5 4 10 -3 6 -8 10 -11 10 -2 0
-4 -4 -4 -10z"/>
<path d="M3556 3019 c-2 -8 -10 -34 -18 -59 l-13 -45 -54 -3 c-29 -1 -59 2
-67 9 -7 6 -18 8 -23 5 -13 -8 -10 -48 4 -43 6 3 9 -12 6 -39 -4 -59 17 -90
71 -105 24 -7 50 -18 58 -24 8 -6 27 -16 43 -23 40 -17 35 -42 -8 -40 -19 1
-38 -1 -41 -5 -10 -10 6 -27 27 -27 18 0 18 -1 -2 -21 -25 -25 -21 -53 9 -57
23 -4 31 13 10 22 -20 7 21 36 51 36 39 1 111 36 111 55 0 11 6 15 19 10 11
-3 26 1 35 10 26 27 19 37 -24 33 -22 -2 -40 0 -40 4 0 5 -5 8 -11 8 -6 0 -9
-6 -6 -14 8 -21 -21 -28 -32 -8 -8 14 -12 15 -22 5 -25 -25 -34 -18 -67 50 -2
4 7 7 21 7 14 0 28 -7 31 -16 10 -26 57 14 53 46 -1 14 4 30 12 36 11 9 12 19
1 62 -11 39 -11 54 -2 65 17 20 -15 58 -53 62 -17 2 -40 7 -52 11 -15 4 -24 2
-27 -7z m81 -24 c31 -6 33 -8 32 -54 -1 -26 2 -57 6 -70 4 -13 2 -28 -5 -36
-7 -8 -10 -21 -7 -29 3 -8 -1 -22 -8 -33 -12 -15 -16 -15 -24 -4 -12 19 -71 5
-71 -18 0 -9 5 -22 12 -29 18 -18 2 -15 -58 13 -30 14 -61 25 -69 25 -18 0
-31 24 -38 72 -7 48 17 74 57 59 17 -7 26 -7 26 -1 0 6 9 10 20 10 20 0 50 45
50 75 0 9 4 13 10 10 6 -4 7 1 3 11 -5 12 -2 15 13 11 10 -3 34 -8 51 -12z
m73 -333 c0 -17 -60 -42 -100 -42 l-31 0 22 29 c19 26 28 30 65 28 28 -1 44
-7 44 -15z"/>
<path d="M3190 2991 c0 -5 9 -7 20 -4 11 3 20 7 20 9 0 2 -9 4 -20 4 -11 0
-20 -4 -20 -9z"/>
<path d="M3475 2970 c-3 -5 -1 -10 4 -10 6 0 11 5 11 10 0 6 -2 10 -4 10 -3 0
-8 -4 -11 -10z"/>
<path d="M3905 2952 c-12 -1 -29 -18 -39 -36 -17 -32 -17 -35 -1 -60 10 -14
13 -26 7 -26 -6 0 -12 4 -14 8 -1 5 -16 12 -32 16 -23 6 -27 4 -23 -8 3 -8 -1
-17 -9 -20 -20 -8 -8 -26 17 -26 10 0 19 -4 19 -9 0 -5 5 -22 10 -37 l11 -27
20 41 c14 27 28 42 40 42 21 0 26 -16 7 -23 -7 -3 -1 -6 13 -6 14 -1 33 5 43
12 17 12 17 16 2 51 -8 20 -15 40 -15 44 8 52 -10 72 -56 64z m41 -21 c-3 -4
1 -33 9 -62 8 -32 10 -58 5 -63 -6 -6 -12 -3 -16 7 -3 9 -14 17 -23 18 -9 0
-26 13 -38 28 l-23 29 25 26 c22 23 74 38 61 17z"/>
<path d="M3223 2864 c-17 -20 -32 -38 -33 -41 -1 -6 48 -33 62 -33 5 0 5 6 0
17 -7 11 -4 26 9 47 10 17 19 34 19 39 0 17 -27 3 -57 -29z"/>
<path d="M2518 2803 c7 -3 16 -2 19 1 4 3 -2 6 -13 5 -11 0 -14 -3 -6 -6z"/>
<path d="M3994 2763 c2 -16 10 -29 20 -31 19 -4 20 -1 4 33 -15 33 -27 32 -24
-2z"/>
<path d="M3762 2749 c-20 -25 -21 -29 -6 -29 18 0 43 27 44 48 0 20 -13 13
-38 -19z"/>
<path d="M3797 2734 c-3 -3 -3 -12 0 -20 6 -16 43 -19 43 -4 0 12 -35 31 -43
24z"/>
<path d="M3930 2731 c0 -5 -9 -11 -20 -14 -29 -7 -25 -32 10 -57 39 -28 92
-30 120 -5 21 19 21 19 26 -2 6 -23 43 -38 57 -24 17 17 -4 49 -46 69 -23 11
-46 16 -51 12 -5 -5 -19 -5 -31 0 -13 5 -26 6 -29 3 -3 -4 -6 1 -6 10 0 10 -7
17 -15 17 -8 0 -15 -4 -15 -9z m10 -40 c0 -6 -4 -13 -10 -16 -5 -3 -10 1 -10
9 0 9 5 16 10 16 6 0 10 -4 10 -9z m90 -6 c0 -2 -10 -10 -22 -16 -21 -11 -22
-11 -9 4 13 16 31 23 31 12z m76 -42 c-4 -4 -14 1 -22 11 -22 31 -17 43 8 19
12 -13 18 -26 14 -30z"/>
<path d="M3310 2693 c1 -21 16 -30 38 -22 12 5 22 11 22 14 0 4 -4 4 -9 0 -5
-3 -12 -1 -16 5 -7 12 -35 14 -35 3z"/>
<path d="M2240 2649 c0 -5 5 -7 10 -4 6 3 10 8 10 11 0 2 -4 4 -10 4 -5 0 -10
-5 -10 -11z"/>
<path d="M4145 2650 c3 -5 8 -10 11 -10 2 0 4 5 4 10 0 6 -5 10 -11 10 -5 0
-7 -4 -4 -10z"/>
<path d="M3196 2624 c-4 -11 -1 -14 11 -12 9 2 18 9 21 16 6 18 -25 15 -32 -4z"/>
<path d="M3322 2628 c2 -6 10 -14 16 -16 7 -2 10 2 6 12 -7 18 -28 22 -22 4z"/>
<path d="M4180 2614 c0 -15 43 -64 56 -64 18 0 18 20 -2 48 -13 19 -54 32 -54
16z"/>
<path d="M3390 2591 c0 -17 25 -28 73 -34 33 -3 47 -1 44 7 -2 6 -15 12 -28
12 -13 1 -37 6 -52 13 -34 13 -37 14 -37 2z"/>
<path d="M3990 2439 c0 -5 5 -7 10 -4 6 3 10 8 10 11 0 2 -4 4 -10 4 -5 0 -10
-5 -10 -11z"/>
<path d="M3190 2418 c0 -11 12 -10 30 2 12 7 10 9 -8 7 -12 0 -22 -5 -22 -9z"/>
<path d="M3190 2370 c0 -5 5 -10 10 -10 6 0 10 5 10 10 0 6 -4 10 -10 10 -5 0
-10 -4 -10 -10z"/>
<path d="M3195 2280 c3 -5 8 -10 11 -10 2 0 4 5 4 10 0 6 -5 10 -11 10 -5 0
-7 -4 -4 -10z"/>
<path d="M2723 2213 c-8 -3 -9 -8 -3 -16 6 -7 20 -24 31 -40 11 -15 25 -24 30
-21 6 3 3 14 -8 26 -10 11 -17 22 -15 24 1 2 2 11 2 19 0 15 -14 18 -37 8z"/>
<path d="M4030 2130 c0 -5 5 -10 11 -10 5 0 7 5 4 10 -3 6 -8 10 -11 10 -2 0
-4 -4 -4 -10z"/>
<path d="M2790 2120 c0 -5 5 -10 10 -10 6 0 10 5 10 10 0 6 -4 10 -10 10 -5 0
-10 -4 -10 -10z"/>
<path d="M3190 2100 c0 -5 5 -10 10 -10 6 0 10 5 10 10 0 6 -4 10 -10 10 -5 0
-10 -4 -10 -10z"/>
<path d="M3190 1970 c0 -5 5 -10 10 -10 6 0 10 5 10 10 0 6 -4 10 -10 10 -5 0
-10 -4 -10 -10z"/>
<path d="M1983 868 c-37 -12 -43 -36 -15 -61 32 -29 105 -15 114 21 13 47 -27
63 -99 40z m85 -34 c-4 -23 -64 -40 -84 -23 -25 21 -15 38 29 47 46 10 61 4
55 -24z"/>
<path d="M2482 418 c-20 -20 -13 -45 16 -57 34 -14 79 -6 79 15 0 8 -2 12 -5
9 -3 -2 -13 7 -24 20 -21 27 -47 32 -66 13z m54 -22 c21 -21 17 -28 -13 -24
-17 2 -29 10 -31 21 -4 21 23 23 44 3z"/>
<path d="M3190 322 c0 -5 7 -9 15 -9 8 0 12 4 9 9 -3 4 -9 8 -15 8 -5 0 -9 -4
-9 -8z"/>
</g>
</svg>
